HIERARCHY
ROOT hip
{
  OFFSET 0 0 0
  CHANNELS 6 Xposition Yposition Zposition Zrotation Yrotation Xrotation
  JOINT abdomen
  {
    OFFSET 0 20.6881 -0.73152
    CHANNELS 3 Zrotation Xrotation Yrotation
    JOINT chest
    {
      OFFSET 0 11.7043 -0.48768
      CHANNELS 3 Zrotation Xrotation Yrotation
      JOINT neck
      {
        OFFSET 0 22.1894 -2.19456
        CHANNELS 3 Zrotation Xrotation Yrotation
        JOINT head
        {
          OFFSET -0.24384 7.07133 1.2192
          CHANNELS 3 Zrotation Xrotation Yrotation
          JOINT leftEye
          {
            OFFSET 4.14528 8.04674 8.04672
            CHANNELS 3 Zrotation Xrotation Yrotation
            End Site
            {
              OFFSET 1 0 0
            }
          }
          JOINT rightEye
          {
            OFFSET -3.6576 8.04674 8.04672
            CHANNELS 3 Zrotation Xrotation Yrotation
            End Site
            {
              OFFSET 1 0 0
            }
          }
        }
      }
      JOINT rCollar
      {
        OFFSET -2.68224 19.2634 -4.8768
        CHANNELS 3 Zrotation Xrotation Yrotation
        JOINT rShldr
        {
          OFFSET -8.77824 -1.95073 1.46304
          CHANNELS 3 Zrotation Xrotation Yrotation
          JOINT rForeArm
          {
            OFFSET -28.1742 -1.7115 0.48768
            CHANNELS 3 Zrotation Xrotation Yrotation
            JOINT rHand
            {
              OFFSET -22.5879 0.773209 7.07136
              CHANNELS 3 Zrotation Xrotation Yrotation
              JOINT rThumb1
              {
                OFFSET -1.2192 -0.487915 3.41376
                CHANNELS 3 Zrotation Xrotation Yrotation
                JOINT rThumb2
                {
                  OFFSET -3.37035 -0.52449 3.41376
                  CHANNELS 3 Zrotation Xrotation Yrotation
                  End Site
                  {
                    OFFSET -1.78271 -1.18214 1.43049
                  }
                }
              }
              JOINT rIndex1
              {
                OFFSET -7.75947 0.938293 5.60832
                CHANNELS 3 Zrotation Xrotation Yrotation
                JOINT rIndex2
                {
                  OFFSET -2.54057 -0.884171 1.56538
                  CHANNELS 3 Zrotation Xrotation Yrotation
                  End Site
                  {
                    OFFSET -1.62519 -0.234802 1.16502
                  }
                }
              }
              JOINT rMid1
              {
                OFFSET -8.24714 1.18213 3.41376
                CHANNELS 3 Zrotation Xrotation Yrotation
                JOINT rMid2
                {
                  OFFSET -3.10165 -0.590103 1.0647
                  CHANNELS 3 Zrotation Xrotation Yrotation
                  End Site
                  {
                    OFFSET -2.48547 -0.328903 0.83742
                  }
                }
              }
              JOINT rRing1
              {
                OFFSET -8.82822 0.546677 1.51678
                CHANNELS 3 Zrotation Xrotation Yrotation
                JOINT rRing2
                {
                  OFFSET -2.60934 -0.819778 -0.0198488
                  CHANNELS 3 Zrotation Xrotation Yrotation
                  End Site
                  {
                    OFFSET -2.33842 -0.294052 0.168128
                  }
                }
              }
              JOINT rPinky1
              {
                OFFSET -8.27202 -0.0477905 -0.4584
                CHANNELS 3 Zrotation Xrotation Yrotation
                JOINT rPinky2
                {
                  OFFSET -1.82734 -0.647385 -0.700984
                  CHANNELS 3 Zrotation Xrotation Yrotation
                  End Site
                  {
                    OFFSET -1.69225 -0.51767 -0.607171
                  }
                }
              }
            }
          }
        }
      }
      JOINT lCollar
      {
        OFFSET 2.68224 19.2634 -4.8768
        CHANNELS 3 Zrotation Xrotation Yrotation
        JOINT lShldr
        {
          OFFSET 8.77824 -1.95073 1.46304
          CHANNELS 3 Zrotation Xrotation Yrotation
          JOINT lForeArm
          {
            OFFSET 28.1742 -1.7115 0.48768
            CHANNELS 3 Zrotation Xrotation Yrotation
            JOINT lHand
            {
              OFFSET 22.5879 0.773209 7.07136
              CHANNELS 3 Zrotation Xrotation Yrotation
              JOINT lThumb1
              {
                OFFSET 1.2192 -0.487915 3.41376
                CHANNELS 3 Zrotation Xrotation Yrotation
                JOINT lThumb2
                {
                  OFFSET 3.37035 -0.52449 3.41376
                  CHANNELS 3 Zrotation Xrotation Yrotation
                  End Site
                  {
                    OFFSET 1.78271 -1.18214 1.43049
                  }
                }
              }
              JOINT lIndex1
              {
                OFFSET 7.75947 0.938293 5.60832
                CHANNELS 3 Zrotation Xrotation Yrotation
                JOINT lIndex2
                {
                  OFFSET 2.54057 -0.884171 1.56538
                  CHANNELS 3 Zrotation Xrotation Yrotation
                  End Site
                  {
                    OFFSET 1.62519 -0.234802 1.16502
                  }
                }
              }
              JOINT lMid1
              {
                OFFSET 8.24714 1.18213 3.41376
                CHANNELS 3 Zrotation Xrotation Yrotation
                JOINT lMid2
                {
                  OFFSET 3.10165 -0.590103 1.0647
                  CHANNELS 3 Zrotation Xrotation Yrotation
                  End Site
                  {
                    OFFSET 2.48547 -0.328903 0.83742
                  }
                }
              }
              JOINT lRing1
              {
                OFFSET 8.82822 0.546677 1.51678
                CHANNELS 3 Zrotation Xrotation Yrotation
                JOINT lRing2
                {
                  OFFSET 2.60934 -0.819778 -0.0198488
                  CHANNELS 3 Zrotation Xrotation Yrotation
                  End Site
                  {
                    OFFSET 2.33842 -0.294052 0.168128
                  }
                }
              }
              JOINT lPinky1
              {
                OFFSET 8.27202 -0.0477905 -0.4584
                CHANNELS 3 Zrotation Xrotation Yrotation
                JOINT lPinky2
                {
                  OFFSET 1.82734 -0.647385 -0.700984
                  CHANNELS 3 Zrotation Xrotation Yrotation
                  End Site
                  {
                    OFFSET 1.69225 -0.51767 -0.607171
                  }
                }
              }
            }
          }
        }
      }
    }
  }
  JOINT rButtock
  {
    OFFSET -8.77824 4.35084 1.2192
    CHANNELS 3 Zrotation Xrotation Yrotation
    JOINT rThigh
    {
      OFFSET 0 -1.70687 -2.19456
      CHANNELS 3 Zrotation Xrotation Yrotation
      JOINT rShin
      {
        OFFSET 0 -36.8199 0.73152
        CHANNELS 3 Zrotation Xrotation Yrotation
        JOINT rFoot
        {
          OFFSET 0.73152 -45.1104 -5.12064
          CHANNELS 3 Zrotation Xrotation Yrotation
          End Site
          {
            OFFSET -1.1221 -3.69964 12.103
          }
        }
      }
    }
  }
  JOINT lButtock
  {
    OFFSET 8.77824 4.35084 1.2192
    CHANNELS 3 Zrotation Xrotation Yrotation
    JOINT lThigh
    {
      OFFSET 0 -1.70687 -2.19456
      CHANNELS 3 Zrotation Xrotation Yrotation
      JOINT lShin
      {
        OFFSET 0 -36.8199 0.73152
        CHANNELS 3 Zrotation Xrotation Yrotation
        JOINT lFoot
        {
          OFFSET -0.73152 -45.1104 -5.12064
          CHANNELS 3 Zrotation Xrotation Yrotation
          End Site
          {
            OFFSET 1.1221 -3.69964 12.103
          }
        }
      }
    }
  }
}
MOTION
Frames:	4
Frame Time:	0.03333
-0.013048388063907623 59.59423780441284 0.18756641075015068 -4.289797782897949 2.177511692047119 3.1239895820617676 -2.2454752922058105 14.80690860748291 3.7649307250976562 2.5584347248077393 -9.841978073120117 1.3561604022979736 -4.946849822998047 14.97042465209961 -3.4965100288391113 8.683157920837402 -23.272245407104492 -4.388011932373047 -0.1222185343503952 -0.0034091416746377945 0.05838136002421379 0.038243070244789124 0.01323825865983963 0.0259543564170599 -0.047405458986759186 -0.0068911160342395306 0.03376656770706177 37.338844299316406 29.77788543701172 18.73614501953125 -28.997039794921875 -26.18738555908203 55.38234329223633 -0.26881930232048035 -12.087373733520508 -2.064385175704956 0.02493962086737156 -0.039449214935302734 -0.027786334976553917 -0.06311554461717606 -0.10140487551689148 0.20966356992721558 0.014647009782493114 -0.017447015270590782 -0.04178157076239586 7.789113998413086 5.555544376373291 0.36889737844467163 0.0010728422785177827 0.02848227694630623 -0.14843392372131348 2.9623260498046875 0.9095042943954468 0.1259550005197525 0.09356275200843811 -0.12541283667087555 -0.0589645579457283 10.314859390258789 0.5418517589569092 -0.011488178744912148 0.029521726071834564 -0.12404844909906387 -0.06416730582714081 2.346003770828247 -0.7832977175712585 -0.2876296639442444 0.021726293489336967 0.03934258967638016 0.01944262534379959 -43.04591369628906 32.210147857666016 -27.783180236816406 28.109041213989258 -24.480907440185547 -53.09329605102539 0.17807728052139282 -12.789268493652344 2.2167108058929443 0.06634725630283356 -0.0731913298368454 -0.019857866689562798 0.010124747641384602 -0.20640107989311218 0.07986621558666229 -0.03920290991663933 -0.08078718930482864 0.056065697222948074 -7.762122631072998 5.67863655090332 -0.41477203369140625 -0.00836468767374754 -0.008863765746355057 0.05035580322146416 -2.892664909362793 0.9537286162376404 -0.14239229261875153 -0.01992177963256836 0.037989892065525055 0.006712996866554022 -10.349874496459961 0.6863825917243958 -0.06392822414636612 -0.053857963532209396 0.05709157884120941 -0.07776972651481628 -2.1351513862609863 -0.7244651913642883 0.14280802011489868 0.015296515077352524 -0.2915792465209961 0.0018272880697622895 -22.1273136138916 -35.96060562133789 -18.303699493408203 -1.0189915895462036 58.09801483154297 1.9697524309158325 -3.707106351852417 -10.088814735412598 -8.957801818847656 -0.008651018142700195 -0.18451368808746338 0.023005694150924683 26.0494384765625 -35.12451934814453 19.958251953125 1.1554296016693115 57.3270263671875 -2.182020664215088 3.897426128387451 -10.665806770324707 13.006062507629395
-0.12404005974531174 65.48259854316711 -0.07104659453034401 -3.6712071895599365 -0.054912034422159195 5.02009916305542 -2.7293996810913086 14.336718559265137 3.5266270637512207 3.1917924880981445 -9.488494873046875 0.9632291793823242 -5.750680446624756 15.44719409942627 -4.509833335876465 9.262845993041992 -24.372257232666016 -6.77432107925415 0.10967991501092911 -0.21058207750320435 -0.22794511914253235 -0.0869828462600708 0.026578744873404503 -0.09409192204475403 0.04288569837808609 -0.12274575233459473 -0.0028054548893123865 47.03548812866211 37.56124496459961 17.119773864746094 -27.41140365600586 -28.4741268157959 65.83031463623047 -0.06892847269773483 -11.070389747619629 -1.1232092380523682 -0.01583571918308735 0.08233559876680374 0.012220824137330055 -0.05961090698838234 -0.05793778970837593 -0.25998738408088684 -0.03571341931819916 -0.1490793079137802 0.04778843745589256 7.887019634246826 5.510428428649902 0.43660682439804077 0.14892098307609558 -0.10856174677610397 0.2250712662935257 2.7052910327911377 1.0403395891189575 0.06101972609758377 -0.15793201327323914 0.11974732577800751 0.15575841069221497 10.463879585266113 0.9187428951263428 0.029288126155734062 0.014184737578034401 0.17270423471927643 -0.12533164024353027 2.181198835372925 -0.7605511546134949 -0.24617859721183777 0.0053045186214149 -0.03220461681485176 0.11770133674144745 -54.01533126831055 39.780452728271484 -27.804641723632812 26.785566329956055 -25.83986473083496 -61.55232238769531 0.17095118761062622 -10.81660270690918 1.4896336793899536 -0.011586044915020466 0.017882896587252617 -0.05666288733482361 0.16891252994537354 0.2980974018573761 -0.024016520008444786 -0.04771183803677559 -0.033020127564668655 0.02120671607553959 -7.732400417327881 5.440789222717285 -0.43970492482185364 0.007378801703453064 0.03127775341272354 -0.12240574508905411 -2.96763014793396 0.9898778200149536 0.005108016077429056 0.321725457906723 -0.19429796934127808 0.12316185981035233 -10.339341163635254 0.725723922252655 -0.00918305292725563 0.16391000151634216 -0.12151436507701874 0.029775241389870644 -2.4816272258758545 -0.7389037609100342 0.0881975069642067 0.15898136794567108 0.07737148553133011 0.02239190600812435 -24.836891174316406 -40.59122848510742 -20.24482536315918 -1.9051724672317505 66.3744888305664 3.076503038406372 -3.3916802406311035 -10.534897804260254 -10.371121406555176 0.14891035854816437 0.10462038964033127 0.024580948054790497 29.56275177001953 -39.29814529418945 22.043235778808594 1.5400093793869019 67.18749237060547 -3.00036883354187 4.669926643371582 -11.158116340637207 14.394739151000977
-0.9849862195551395 57.104748487472534 0.8700873702764511 -14.959174156188965 59.78340530395508 19.625749588012695 5.979205131530762 10.87544059753418 1.6411232948303223 1.7175630331039429 -8.692280769348145 0.5224568247795105 -2.0859479904174805 11.593387603759766 2.5109264850616455 4.3472394943237305 -21.76251983642578 4.256943225860596 0.18745404481887817 -0.07228054851293564 -0.00788632221519947 0.17867636680603027 0.5273274183273315 0.08854641765356064 -0.1302535980939865 0.009749122895300388 -0.5412880778312683 77.31017303466797 49.662357330322266 -19.74466323852539 -28.25301742553711 -34.60240936279297 76.06101989746094 -3.1640708446502686 -44.726348876953125 -7.989156723022461 -0.44609335064888 -0.13450196385383606 -0.04750441014766693 0.002499057212844491 -0.2390640825033188 -0.49830299615859985 -0.3901693820953369 0.23608385026454926 0.3990674614906311 7.374853610992432 5.332058906555176 -0.0926215723156929 0.20887117087841034 0.14288339018821716 -0.323812335729599 2.5232810974121094 0.73042893409729 -0.46091800928115845 0.19837553799152374 -0.21778033673763275 0.1143995001912117 9.85067367553711 1.030319333076477 -0.1325075626373291 -0.486508846282959 0.1634819060564041 -0.3226545751094818 2.3785083293914795 -0.9021376371383667 0.15457294881343842 0.3693807125091553 0.3522004783153534 0.19153587520122528 -46.09950256347656 6.956648826599121 -53.06038284301758 14.250770568847656 -7.280090808868408 -28.544187545776367 2.209477663040161 37.55674743652344 -7.603317737579346 0.2644309997558594 -0.40953534841537476 0.5027211308479309 -0.5887227654457092 0.03224632889032364 0.26245900988578796 0.29450416564941406 0.2121807485818863 0.06219004839658737 -6.564514636993408 5.339105129241943 -0.6339426636695862 0.22554737329483032 -0.5819950699806213 0.24391406774520874 -2.220768928527832 0.9642667174339294 0.18049737811088562 0.06417889147996902 0.891719400882721 0.014713550917804241 -9.370932579040527 0.8753743767738342 0.09191162884235382 -0.28494006395339966 -0.3015120327472687 -0.007419015746563673 -1.8120335340499878 -0.03773844614624977 -0.19142410159111023 0.10223565250635147 0.12422723323106766 -0.007247905246913433 -9.357352256774902 -17.878150939941406 -6.5769453048706055 -0.06562986224889755 53.24066162109375 1.788575291633606 -6.8011555671691895 -15.911706924438477 -19.686220169067383 -0.3789025545120239 -0.3782089352607727 0.5042505264282227 47.19694137573242 -52.22416687011719 39.16516876220703 4.117283821105957 70.7387924194336 -3.9984309673309326 2.6295719146728516 -6.513429641723633 6.080994129180908
-2.727343048900366 65.46200513839722 2.8626441955566406 -169.5184326171875 44.62498474121094 172.0307159423828 8.9476900100708 9.262078285217285 -0.8169316053390503 -0.222493514418602 -7.741150856018066 0.14502210915088654 -2.0199496746063232 11.97903060913086 4.790008544921875 0.9632140398025513 -22.342458724975586 5.80704927444458 -0.3629274368286133 -0.40979206562042236 0.4762020409107208 0.6018077731132507 0.5499045252799988 -0.25086233019828796 -1.323549509048462 -0.3540377914905548 -0.2783749997615814 105.17426300048828 46.30522918701172 -44.47974395751953 -28.254289627075195 -41.414913177490234 86.09146118164062 -26.74641990661621 -77.24911499023438 -33.62135314941406 -0.8514533638954163 -0.43710383772850037 -0.5723884701728821 -0.7418358325958252 -0.27085328102111816 0.21993759274482727 -1.4574434757232666 0.04711160808801651 0.6530077457427979 8.254411697387695 5.432530403137207 -0.5953361988067627 -0.22271254658699036 1.1720682382583618 -0.7926317453384399 2.100541591644287 0.8611786365509033 -1.2054396867752075 0.38526687026023865 0.10728800296783447 0.8414247632026672 11.123038291931152 1.344853401184082 0.08928462117910385 -0.07238506525754929 0.49937254190444946 0.42397400736808777 1.9776952266693115 -0.07454999536275864 0.629813551902771 1.0139119625091553 0.4481493830680847 0.024891311302781105 -56.19499206542969 -7.48785400390625 -72.04720306396484 2.7180423736572266 -0.47502633929252625 -3.9522809982299805 12.641780853271484 68.6655502319336 -20.46584701538086 0.5467947721481323 -0.8570406436920166 0.7915806174278259 -0.7309707999229431 -0.10083412379026413 0.7362634539604187 0.14711637794971466 0.6590125560760498 -0.22086547315120697 -6.9315972328186035 6.684629917144775 -0.043740540742874146 -0.00699818879365921 -1.4787651300430298 0.7236373424530029 -2.404747486114502 0.576419472694397 0.5227009654045105 -1.4783821105957031 1.5545367002487183 0.28586694598197937 -9.142640113830566 1.2418413162231445 0.6930932998657227 -0.8310925960540771 -0.7714489102363586 -0.7336525917053223 -2.686939239501953 0.383061945438385 0.9632834196090698 -0.13893160223960876 -0.9223048090934753 0.8816681504249573 -6.572118759155273 -10.97603702545166 -4.713094234466553 0.7751461863517761 53.65143585205078 1.9907076358795166 -7.193447113037109 -17.58466339111328 -19.70111846923828 -0.045720912516117096 -1.2528064250946045 0.6257606148719788 52.06340789794922 -56.97441101074219 47.70034408569336 3.5016677379608154 71.91459655761719 -2.7754600048065186 4.914366722106934 -8.104689598083496 7.520115375518799
